<svg width="320" height="66" viewBox="0 0 320 66" fill="none" xmlns="http://www.w3.org/2000/svg">
<g clip-path="url(#clip0_101_16331)">
<path d="M310.667 7.61621H297.333C294.388 7.61621 292 10.004 292 12.9495V20.9495C292 23.8951 294.388 26.2829 297.333 26.2829H310.667C313.612 26.2829 316 23.8951 316 20.9495V12.9495C316 10.004 313.612 7.61621 310.667 7.61621Z" stroke="#0A1B36" stroke-width="2.75" stroke-linecap="round" stroke-linejoin="round"/>
<path d="M301.333 12.9492L308 16.9492L301.333 20.9492V12.9492Z" stroke="#0A1B36" stroke-width="2.75" stroke-linecap="round" stroke-linejoin="round"/>
</g>
<g clip-path="url(#clip1_101_16331)">
<path d="M249.333 14.2826V19.6159H253.333V28.9492H258.666V19.6159H262.666L264 14.2826H258.666V11.6159C258.666 11.2623 258.807 10.9231 259.057 10.6731C259.307 10.423 259.646 10.2826 260 10.2826H264V4.94922H260C258.232 4.94922 256.536 5.6516 255.286 6.90184C254.035 8.15208 253.333 9.84778 253.333 11.6159V14.2826H249.333Z" stroke="#0A1B36" stroke-width="2.75" stroke-linecap="round" stroke-linejoin="round"/>
</g>
<g clip-path="url(#clip2_101_16331)">
<path d="M213.333 6.28223H202.666C199.721 6.28223 197.333 8.67004 197.333 11.6156V22.2822C197.333 25.2277 199.721 27.6156 202.666 27.6156H213.333C216.279 27.6156 218.666 25.2277 218.666 22.2822V11.6156C218.666 8.67004 216.279 6.28223 213.333 6.28223Z" stroke="#0A1B36" stroke-width="2.75" stroke-linecap="round" stroke-linejoin="round"/>
<path d="M208 20.9492C210.209 20.9492 212 19.1584 212 16.9492C212 14.7401 210.209 12.9492 208 12.9492C205.791 12.9492 204 14.7401 204 16.9492C204 19.1584 205.791 20.9492 208 20.9492Z" stroke="#0A1B36" stroke-width="2.75" stroke-linecap="round" stroke-linejoin="round"/>
<path d="M214 10.9492V10.9502" stroke="#0A1B36" stroke-width="2.75" stroke-linecap="round" stroke-linejoin="round"/>
</g>
<path d="M214.63 59.6228H214.588C214.467 60.0801 214.168 60.4628 213.692 60.7708C213.225 61.0694 212.619 61.2188 211.872 61.2188C211.275 61.2188 210.724 61.1114 210.22 60.8968C209.725 60.6728 209.301 60.3508 208.946 59.9308C208.591 59.5014 208.311 58.9741 208.106 58.3488C207.91 57.7141 207.812 56.9861 207.812 56.1648C207.812 55.3528 207.91 54.6341 208.106 54.0088C208.302 53.3741 208.582 52.8468 208.946 52.4268C209.31 51.9974 209.749 51.6708 210.262 51.4468C210.775 51.2228 211.345 51.1108 211.97 51.1108C212.847 51.1108 213.58 51.3068 214.168 51.6988C214.756 52.0908 215.209 52.6088 215.526 53.2528L214.56 53.8408C214.336 53.3181 214 52.9074 213.552 52.6088C213.113 52.3101 212.586 52.1608 211.97 52.1608C211.541 52.1608 211.149 52.2401 210.794 52.3988C210.439 52.5481 210.131 52.7628 209.87 53.0428C209.618 53.3228 209.422 53.6588 209.282 54.0508C209.142 54.4428 209.072 54.8814 209.072 55.3668V56.9488C209.072 57.4341 209.142 57.8774 209.282 58.2788C209.422 58.6708 209.618 59.0068 209.87 59.2868C210.131 59.5668 210.449 59.7861 210.822 59.9448C211.195 60.0941 211.615 60.1688 212.082 60.1688C212.418 60.1688 212.735 60.1268 213.034 60.0428C213.342 59.9494 213.608 59.8141 213.832 59.6368C214.065 59.4594 214.247 59.2401 214.378 58.9788C214.509 58.7081 214.574 58.3908 214.574 58.0268V57.0608H212.418V56.0248H215.722V61.0508H214.63V59.6228ZM217.924 61.0508V53.8268H219.044V55.1568H219.114C219.245 54.8114 219.478 54.5034 219.814 54.2328C220.15 53.9621 220.612 53.8268 221.2 53.8268H221.634V54.9468H220.976C220.37 54.9468 219.894 55.0634 219.548 55.2968C219.212 55.5208 219.044 55.8054 219.044 56.1508V61.0508H217.924ZM227.517 59.8748H227.461C227.386 60.0428 227.293 60.2108 227.181 60.3788C227.078 60.5374 226.948 60.6821 226.789 60.8128C226.63 60.9341 226.439 61.0321 226.215 61.1068C225.991 61.1814 225.73 61.2188 225.431 61.2188C224.684 61.2188 224.092 60.9808 223.653 60.5048C223.214 60.0194 222.995 59.3381 222.995 58.4608V53.8268H224.115V58.2648C224.115 59.5621 224.666 60.2108 225.767 60.2108C225.991 60.2108 226.206 60.1828 226.411 60.1268C226.626 60.0708 226.812 59.9868 226.971 59.8748C227.139 59.7628 227.27 59.6228 227.363 59.4548C227.466 59.2774 227.517 59.0674 227.517 58.8248V53.8268H228.637V61.0508H227.517V59.8748ZM231.022 53.8268H232.142V55.0028H232.198C232.385 54.5454 232.655 54.2094 233.01 53.9948C233.374 53.7708 233.808 53.6588 234.312 53.6588C234.76 53.6588 235.166 53.7474 235.53 53.9248C235.894 54.1021 236.202 54.3541 236.454 54.6808C236.715 55.0074 236.911 55.4041 237.042 55.8708C237.182 56.3374 237.252 56.8601 237.252 57.4388C237.252 58.0174 237.182 58.5401 237.042 59.0068C236.911 59.4734 236.715 59.8701 236.454 60.1968C236.202 60.5234 235.894 60.7754 235.53 60.9528C235.166 61.1301 234.76 61.2188 234.312 61.2188C233.332 61.2188 232.627 60.7708 232.198 59.8748H232.142V63.8508H231.022V53.8268ZM234.004 60.2108C234.639 60.2108 235.138 60.0148 235.502 59.6228C235.866 59.2214 236.048 58.6988 236.048 58.0548V56.8228C236.048 56.1788 235.866 55.6608 235.502 55.2688C235.138 54.8674 234.639 54.6668 234.004 54.6668C233.752 54.6668 233.509 54.7041 233.276 54.7788C233.052 54.8441 232.856 54.9374 232.688 55.0588C232.52 55.1801 232.385 55.3294 232.282 55.5068C232.189 55.6748 232.142 55.8568 232.142 56.0528V58.7408C232.142 58.9741 232.189 59.1841 232.282 59.3708C232.385 59.5481 232.52 59.7021 232.688 59.8328C232.856 59.9541 233.052 60.0474 233.276 60.1128C233.509 60.1781 233.752 60.2108 234.004 60.2108ZM241.873 61.2188C241.388 61.2188 240.944 61.1301 240.543 60.9528C240.142 60.7754 239.796 60.5234 239.507 60.1968C239.227 59.8608 239.008 59.4641 238.849 59.0068C238.69 58.5401 238.611 58.0174 238.611 57.4388C238.611 56.8694 238.69 56.3514 238.849 55.8848C239.008 55.4181 239.227 55.0214 239.507 54.6948C239.796 54.3588 240.142 54.1021 240.543 53.9248C240.944 53.7474 241.388 53.6588 241.873 53.6588C242.358 53.6588 242.797 53.7474 243.189 53.9248C243.59 54.1021 243.936 54.3588 244.225 54.6948C244.514 55.0214 244.738 55.4181 244.897 55.8848C245.056 56.3514 245.135 56.8694 245.135 57.4388C245.135 58.0174 245.056 58.5401 244.897 59.0068C244.738 59.4641 244.514 59.8608 244.225 60.1968C243.936 60.5234 243.59 60.7754 243.189 60.9528C242.797 61.1301 242.358 61.2188 241.873 61.2188ZM241.873 60.2248C242.48 60.2248 242.974 60.0381 243.357 59.6648C243.74 59.2914 243.931 58.7221 243.931 57.9568V56.9208C243.931 56.1554 243.74 55.5861 243.357 55.2128C242.974 54.8394 242.48 54.6528 241.873 54.6528C241.266 54.6528 240.772 54.8394 240.389 55.2128C240.006 55.5861 239.815 56.1554 239.815 56.9208V57.9568C239.815 58.7221 240.006 59.2914 240.389 59.6648C240.772 60.0381 241.266 60.2248 241.873 60.2248ZM250.398 51.2788H254.416C255.228 51.2788 255.862 51.5074 256.32 51.9648C256.786 52.4221 257.02 53.0334 257.02 53.7988C257.02 54.1628 256.968 54.4708 256.866 54.7228C256.763 54.9748 256.632 55.1848 256.474 55.3528C256.315 55.5114 256.142 55.6328 255.956 55.7168C255.769 55.7914 255.596 55.8428 255.438 55.8708V55.9548C255.615 55.9641 255.811 56.0108 256.026 56.0948C256.25 56.1788 256.46 56.3141 256.656 56.5008C256.852 56.6781 257.015 56.9114 257.146 57.2008C257.286 57.4808 257.356 57.8214 257.356 58.2228C257.356 58.6241 257.29 58.9974 257.16 59.3428C257.038 59.6881 256.866 59.9868 256.642 60.2388C256.418 60.4908 256.152 60.6914 255.844 60.8408C255.536 60.9808 255.2 61.0508 254.836 61.0508H250.398V51.2788ZM251.574 60.0148H254.472C254.976 60.0148 255.372 59.8888 255.662 59.6368C255.951 59.3754 256.096 58.9974 256.096 58.5028V58.0268C256.096 57.5321 255.951 57.1588 255.662 56.9068C255.372 56.6454 254.976 56.5148 254.472 56.5148H251.574V60.0148ZM251.574 55.5068H254.276C254.742 55.5068 255.106 55.3901 255.368 55.1568C255.629 54.9234 255.76 54.5874 255.76 54.1488V53.6728C255.76 53.2341 255.629 52.8981 255.368 52.6648C255.106 52.4314 254.742 52.3148 254.276 52.3148H251.574V55.5068ZM262.162 61.2188C261.677 61.2188 261.234 61.1301 260.832 60.9528C260.431 60.7754 260.086 60.5234 259.796 60.1968C259.516 59.8608 259.297 59.4641 259.138 59.0068C258.98 58.5401 258.9 58.0174 258.9 57.4388C258.9 56.8694 258.98 56.3514 259.138 55.8848C259.297 55.4181 259.516 55.0214 259.796 54.6948C260.086 54.3588 260.431 54.1021 260.832 53.9248C261.234 53.7474 261.677 53.6588 262.162 53.6588C262.648 53.6588 263.086 53.7474 263.478 53.9248C263.88 54.1021 264.225 54.3588 264.514 54.6948C264.804 55.0214 265.028 55.4181 265.186 55.8848C265.345 56.3514 265.424 56.8694 265.424 57.4388C265.424 58.0174 265.345 58.5401 265.186 59.0068C265.028 59.4641 264.804 59.8608 264.514 60.1968C264.225 60.5234 263.88 60.7754 263.478 60.9528C263.086 61.1301 262.648 61.2188 262.162 61.2188ZM262.162 60.2248C262.769 60.2248 263.264 60.0381 263.646 59.6648C264.029 59.2914 264.22 58.7221 264.22 57.9568V56.9208C264.22 56.1554 264.029 55.5861 263.646 55.2128C263.264 54.8394 262.769 54.6528 262.162 54.6528C261.556 54.6528 261.061 54.8394 260.678 55.2128C260.296 55.5861 260.104 56.1554 260.104 56.9208V57.9568C260.104 58.7221 260.296 59.2914 260.678 59.6648C261.061 60.0381 261.556 60.2248 262.162 60.2248ZM268.862 61.0508C268.47 61.0508 268.172 60.9434 267.966 60.7288C267.77 60.5048 267.672 60.2154 267.672 59.8608V54.8068H266.482V53.8268H267.154C267.397 53.8268 267.56 53.7801 267.644 53.6868C267.738 53.5841 267.784 53.4114 267.784 53.1688V51.8248H268.792V53.8268H270.374V54.8068H268.792V60.0708H270.262V61.0508H268.862ZM272.734 52.1328C272.492 52.1328 272.314 52.0768 272.202 51.9648C272.1 51.8434 272.048 51.6894 272.048 51.5028V51.3208C272.048 51.1341 272.1 50.9848 272.202 50.8728C272.314 50.7514 272.492 50.6908 272.734 50.6908C272.977 50.6908 273.15 50.7514 273.252 50.8728C273.364 50.9848 273.42 51.1341 273.42 51.3208V51.5028C273.42 51.6894 273.364 51.8434 273.252 51.9648C273.15 52.0768 272.977 52.1328 272.734 52.1328ZM272.174 53.8268H273.294V61.0508H272.174V53.8268ZM278.362 61.2188C277.858 61.2188 277.406 61.1301 277.004 60.9528C276.603 60.7754 276.262 60.5234 275.982 60.1968C275.712 59.8701 275.502 59.4734 275.352 59.0068C275.212 58.5401 275.142 58.0174 275.142 57.4388C275.142 56.8601 275.212 56.3374 275.352 55.8708C275.502 55.4041 275.712 55.0074 275.982 54.6808C276.262 54.3541 276.603 54.1021 277.004 53.9248C277.406 53.7474 277.858 53.6588 278.362 53.6588C279.081 53.6588 279.655 53.8174 280.084 54.1348C280.523 54.4428 280.85 54.8488 281.064 55.3528L280.126 55.8288C279.996 55.4554 279.781 55.1661 279.482 54.9608C279.184 54.7554 278.81 54.6528 278.362 54.6528C278.026 54.6528 277.732 54.7088 277.48 54.8208C277.228 54.9234 277.018 55.0728 276.85 55.2688C276.682 55.4554 276.556 55.6841 276.472 55.9548C276.388 56.2161 276.346 56.5054 276.346 56.8228V58.0548C276.346 58.6894 276.514 59.2121 276.85 59.6228C277.196 60.0241 277.7 60.2248 278.362 60.2248C279.268 60.2248 279.921 59.8048 280.322 58.9648L281.134 59.5108C280.901 60.0334 280.551 60.4488 280.084 60.7568C279.627 61.0648 279.053 61.2188 278.362 61.2188ZM287.965 61.0508C287.545 61.0508 287.242 60.9388 287.055 60.7148C286.878 60.4908 286.766 60.2108 286.719 59.8748H286.649C286.491 60.3228 286.229 60.6588 285.865 60.8828C285.501 61.1068 285.067 61.2188 284.563 61.2188C283.798 61.2188 283.201 61.0228 282.771 60.6308C282.351 60.2388 282.141 59.7068 282.141 59.0348C282.141 58.3534 282.389 57.8308 282.883 57.4668C283.387 57.1028 284.167 56.9208 285.221 56.9208H286.649V56.2068C286.649 55.6934 286.509 55.3014 286.229 55.0308C285.949 54.7601 285.52 54.6248 284.941 54.6248C284.503 54.6248 284.134 54.7228 283.835 54.9188C283.546 55.1148 283.303 55.3761 283.107 55.7028L282.435 55.0728C282.631 54.6808 282.944 54.3494 283.373 54.0788C283.803 53.7988 284.344 53.6588 284.997 53.6588C285.875 53.6588 286.556 53.8734 287.041 54.3028C287.527 54.7321 287.769 55.3294 287.769 56.0948V60.0708H288.595V61.0508H287.965ZM284.745 60.2668C285.025 60.2668 285.282 60.2341 285.515 60.1688C285.749 60.1034 285.949 60.0101 286.117 59.8888C286.285 59.7674 286.416 59.6274 286.509 59.4688C286.603 59.3101 286.649 59.1374 286.649 58.9508V57.7608H285.165C284.521 57.7608 284.05 57.8541 283.751 58.0408C283.462 58.2274 283.317 58.4981 283.317 58.8528V59.1468C283.317 59.5014 283.443 59.7768 283.695 59.9728C283.957 60.1688 284.307 60.2668 284.745 60.2668ZM285.165 52.8608L284.437 52.5248L285.627 50.1448L286.649 50.6348L285.165 52.8608ZM290.194 61.0508V53.8268H291.314V55.1568H291.384C291.515 54.8114 291.748 54.5034 292.084 54.2328C292.42 53.9621 292.882 53.8268 293.47 53.8268H293.904V54.9468H293.246C292.639 54.9468 292.163 55.0634 291.818 55.2968C291.482 55.5208 291.314 55.8054 291.314 56.1508V61.0508H290.194ZM295.895 52.1328C295.652 52.1328 295.475 52.0768 295.363 51.9648C295.26 51.8434 295.209 51.6894 295.209 51.5028V51.3208C295.209 51.1341 295.26 50.9848 295.363 50.8728C295.475 50.7514 295.652 50.6908 295.895 50.6908C296.137 50.6908 296.31 50.7514 296.413 50.8728C296.525 50.9848 296.581 51.1341 296.581 51.3208V51.5028C296.581 51.6894 296.525 51.8434 296.413 51.9648C296.31 52.0768 296.137 52.1328 295.895 52.1328ZM295.335 53.8268H296.455V61.0508H295.335V53.8268ZM301.565 61.2188C301.079 61.2188 300.636 61.1301 300.235 60.9528C299.833 60.7754 299.488 60.5234 299.199 60.1968C298.919 59.8608 298.699 59.4641 298.541 59.0068C298.382 58.5401 298.303 58.0174 298.303 57.4388C298.303 56.8694 298.382 56.3514 298.541 55.8848C298.699 55.4181 298.919 55.0214 299.199 54.6948C299.488 54.3588 299.833 54.1021 300.235 53.9248C300.636 53.7474 301.079 53.6588 301.565 53.6588C302.05 53.6588 302.489 53.7474 302.881 53.9248C303.282 54.1021 303.627 54.3588 303.917 54.6948C304.206 55.0214 304.43 55.4181 304.589 55.8848C304.747 56.3514 304.827 56.8694 304.827 57.4388C304.827 58.0174 304.747 58.5401 304.589 59.0068C304.43 59.4641 304.206 59.8608 303.917 60.1968C303.627 60.5234 303.282 60.7754 302.881 60.9528C302.489 61.1301 302.05 61.2188 301.565 61.2188ZM301.565 60.2248C302.171 60.2248 302.666 60.0381 303.049 59.6648C303.431 59.2914 303.623 58.7221 303.623 57.9568V56.9208C303.623 56.1554 303.431 55.5861 303.049 55.2128C302.666 54.8394 302.171 54.6528 301.565 54.6528C300.958 54.6528 300.463 54.8394 300.081 55.2128C299.698 55.5861 299.507 56.1554 299.507 56.9208V57.9568C299.507 58.7221 299.698 59.2914 300.081 59.6648C300.463 60.0381 300.958 60.2248 301.565 60.2248Z" fill="black"/>
<path d="M2.25317 24.7637V14.9917H6.14517C7.02251 14.9917 7.69451 15.2437 8.16117 15.7477C8.63717 16.2423 8.87517 16.9237 8.87517 17.7917C8.87517 18.6597 8.63717 19.3457 8.16117 19.8497C7.69451 20.3443 7.02251 20.5917 6.14517 20.5917H3.42917V24.7637H2.25317ZM3.42917 19.5557H6.14517C6.61184 19.5557 6.97117 19.4343 7.22317 19.1917C7.48451 18.949 7.61517 18.6037 7.61517 18.1557V17.4277C7.61517 16.9797 7.48451 16.6343 7.22317 16.3917C6.97117 16.149 6.61184 16.0277 6.14517 16.0277H3.42917V19.5557ZM10.4947 24.7637V17.5397H11.6147V18.8697H11.6847C11.8154 18.5243 12.0487 18.2163 12.3847 17.9457C12.7207 17.675 13.1827 17.5397 13.7707 17.5397H14.2047V18.6597H13.5467C12.94 18.6597 12.464 18.7763 12.1187 19.0097C11.7827 19.2337 11.6147 19.5183 11.6147 19.8637V24.7637H10.4947ZM18.297 24.9317C17.8116 24.9317 17.3683 24.843 16.967 24.6657C16.5656 24.4883 16.2203 24.2363 15.931 23.9097C15.651 23.5737 15.4316 23.177 15.273 22.7197C15.1143 22.253 15.035 21.7303 15.035 21.1517C15.035 20.5823 15.1143 20.0643 15.273 19.5977C15.4316 19.131 15.651 18.7343 15.931 18.4077C16.2203 18.0717 16.5656 17.815 16.967 17.6377C17.3683 17.4603 17.8116 17.3717 18.297 17.3717C18.7823 17.3717 19.221 17.4603 19.613 17.6377C20.0143 17.815 20.3596 18.0717 20.649 18.4077C20.9383 18.7343 21.1623 19.131 21.321 19.5977C21.4796 20.0643 21.559 20.5823 21.559 21.1517C21.559 21.7303 21.4796 22.253 21.321 22.7197C21.1623 23.177 20.9383 23.5737 20.649 23.9097C20.3596 24.2363 20.0143 24.4883 19.613 24.6657C19.221 24.843 18.7823 24.9317 18.297 24.9317ZM18.297 23.9377C18.9036 23.9377 19.3983 23.751 19.781 23.3777C20.1636 23.0043 20.355 22.435 20.355 21.6697V20.6337C20.355 19.8683 20.1636 19.299 19.781 18.9257C19.3983 18.5523 18.9036 18.3657 18.297 18.3657C17.6903 18.3657 17.1956 18.5523 16.813 18.9257C16.4303 19.299 16.239 19.8683 16.239 20.6337V21.6697C16.239 22.435 16.4303 23.0043 16.813 23.3777C17.1956 23.751 17.6903 23.9377 18.297 23.9377ZM29.4909 25.5617C29.4909 26.3083 29.1969 26.8543 28.6089 27.1997C28.0303 27.5543 27.1576 27.7317 25.9909 27.7317C24.8616 27.7317 24.0496 27.5777 23.5549 27.2697C23.0603 26.9617 22.8129 26.523 22.8129 25.9537C22.8129 25.5617 22.9156 25.2537 23.1209 25.0297C23.3263 24.815 23.6063 24.6563 23.9609 24.5537V24.3997C23.5316 24.1943 23.3169 23.8583 23.3169 23.3917C23.3169 23.0277 23.4336 22.7523 23.6669 22.5657C23.9003 22.3697 24.1989 22.225 24.5629 22.1317V22.0757C24.1336 21.8703 23.7976 21.5763 23.5549 21.1937C23.3216 20.811 23.2049 20.3677 23.2049 19.8637C23.2049 19.4997 23.2703 19.1637 23.4009 18.8557C23.5316 18.5477 23.7136 18.2863 23.9469 18.0717C24.1896 17.8477 24.4743 17.675 24.8009 17.5537C25.1369 17.4323 25.5103 17.3717 25.9209 17.3717C26.4343 17.3717 26.8916 17.465 27.2929 17.6517V17.5257C27.2929 17.2457 27.3583 17.017 27.4889 16.8397C27.6196 16.653 27.8343 16.5597 28.1329 16.5597H29.2109V17.5397H27.8389V18.0017C28.1003 18.2257 28.3009 18.4963 28.4409 18.8137C28.5903 19.1217 28.6649 19.4717 28.6649 19.8637C28.6649 20.2277 28.5996 20.5637 28.4689 20.8717C28.3383 21.1797 28.1516 21.4457 27.9089 21.6697C27.6756 21.8843 27.3909 22.0523 27.0549 22.1737C26.7189 22.295 26.3456 22.3557 25.9349 22.3557C25.7016 22.3557 25.4683 22.3323 25.2349 22.2857C24.9923 22.351 24.7729 22.449 24.5769 22.5797C24.3809 22.701 24.2829 22.8737 24.2829 23.0977C24.2829 23.3123 24.3856 23.457 24.5909 23.5317C24.7963 23.6063 25.0623 23.6437 25.3889 23.6437H26.9289C27.8249 23.6437 28.4736 23.8163 28.8749 24.1617C29.2856 24.4977 29.4909 24.9643 29.4909 25.5617ZM28.4409 25.6457C28.4409 25.3563 28.3289 25.123 28.1049 24.9457C27.8903 24.7777 27.5029 24.6937 26.9429 24.6937H24.5349C24.0869 24.899 23.8629 25.2257 23.8629 25.6737C23.8629 25.991 23.9796 26.2617 24.2129 26.4857C24.4556 26.7097 24.8616 26.8217 25.4309 26.8217H26.4669C27.0923 26.8217 27.5776 26.7237 27.9229 26.5277C28.2683 26.3317 28.4409 26.0377 28.4409 25.6457ZM25.9349 21.4597C26.4109 21.4597 26.7889 21.3477 27.0689 21.1237C27.3489 20.8903 27.4889 20.5357 27.4889 20.0597V19.6677C27.4889 19.1917 27.3489 18.8417 27.0689 18.6177C26.7889 18.3843 26.4109 18.2677 25.9349 18.2677C25.4589 18.2677 25.0809 18.3843 24.8009 18.6177C24.5209 18.8417 24.3809 19.1917 24.3809 19.6677V20.0597C24.3809 20.5357 24.5209 20.8903 24.8009 21.1237C25.0809 21.3477 25.4589 21.4597 25.9349 21.4597ZM30.7974 24.7637V17.5397H31.9174V18.8697H31.9874C32.1181 18.5243 32.3514 18.2163 32.6874 17.9457C33.0234 17.675 33.4854 17.5397 34.0734 17.5397H34.5074V18.6597H33.8494C33.2428 18.6597 32.7668 18.7763 32.4214 19.0097C32.0854 19.2337 31.9174 19.5183 31.9174 19.8637V24.7637H30.7974ZM41.1334 24.7637C40.7134 24.7637 40.41 24.6517 40.2234 24.4277C40.046 24.2037 39.934 23.9237 39.8874 23.5877H39.8174C39.6587 24.0357 39.3974 24.3717 39.0334 24.5957C38.6694 24.8197 38.2354 24.9317 37.7314 24.9317C36.966 24.9317 36.3687 24.7357 35.9394 24.3437C35.5194 23.9517 35.3094 23.4197 35.3094 22.7477C35.3094 22.0663 35.5567 21.5437 36.0514 21.1797C36.5554 20.8157 37.3347 20.6337 38.3894 20.6337H39.8174V19.9197C39.8174 19.4063 39.6774 19.0143 39.3974 18.7437C39.1174 18.473 38.688 18.3377 38.1094 18.3377C37.6707 18.3377 37.302 18.4357 37.0034 18.6317C36.714 18.8277 36.4714 19.089 36.2754 19.4157L35.6034 18.7857C35.7994 18.3937 36.112 18.0623 36.5414 17.7917C36.9707 17.5117 37.512 17.3717 38.1654 17.3717C39.0427 17.3717 39.724 17.5863 40.2094 18.0157C40.6947 18.445 40.9374 19.0423 40.9374 19.8077V23.7837H41.7634V24.7637H41.1334ZM37.9134 23.9797C38.1934 23.9797 38.45 23.947 38.6834 23.8817C38.9167 23.8163 39.1174 23.723 39.2854 23.6017C39.4534 23.4803 39.584 23.3403 39.6774 23.1817C39.7707 23.023 39.8174 22.8503 39.8174 22.6637V21.4737H38.3334C37.6894 21.4737 37.218 21.567 36.9194 21.7537C36.63 21.9403 36.4854 22.211 36.4854 22.5657V22.8597C36.4854 23.2143 36.6114 23.4897 36.8634 23.6857C37.1247 23.8817 37.4747 23.9797 37.9134 23.9797ZM43.3619 24.7637V17.5397H44.4819V18.7157H44.5379C44.6219 18.529 44.7152 18.3563 44.8179 18.1977C44.9299 18.0297 45.0605 17.885 45.2099 17.7637C45.3685 17.6423 45.5505 17.549 45.7559 17.4837C45.9612 17.409 46.2039 17.3717 46.4839 17.3717C46.9599 17.3717 47.3985 17.4883 47.7999 17.7217C48.2012 17.9457 48.4999 18.319 48.6959 18.8417H48.7239C48.8545 18.4497 49.0972 18.109 49.4519 17.8197C49.8159 17.521 50.3059 17.3717 50.9219 17.3717C51.6592 17.3717 52.2332 17.6143 52.6439 18.0997C53.0639 18.5757 53.2739 19.2523 53.2739 20.1297V24.7637H52.1539V20.3257C52.1539 19.6817 52.0279 19.1963 51.7759 18.8697C51.5239 18.543 51.1225 18.3797 50.5719 18.3797C50.3479 18.3797 50.1332 18.4077 49.9279 18.4637C49.7319 18.5197 49.5545 18.6037 49.3959 18.7157C49.2372 18.8277 49.1112 18.9723 49.0179 19.1497C48.9245 19.3177 48.8779 19.5183 48.8779 19.7517V24.7637H47.7579V20.3257C47.7579 19.6817 47.6319 19.1963 47.3799 18.8697C47.1279 18.543 46.7359 18.3797 46.2039 18.3797C45.9799 18.3797 45.7652 18.4077 45.5599 18.4637C45.3545 18.5197 45.1725 18.6037 45.0139 18.7157C44.8552 18.8277 44.7245 18.9723 44.6219 19.1497C44.5285 19.3177 44.4819 19.5183 44.4819 19.7517V24.7637H43.3619ZM60.8345 24.7637C60.4145 24.7637 60.1112 24.6517 59.9245 24.4277C59.7472 24.2037 59.6352 23.9237 59.5885 23.5877H59.5185C59.3599 24.0357 59.0985 24.3717 58.7345 24.5957C58.3705 24.8197 57.9365 24.9317 57.4325 24.9317C56.6672 24.9317 56.0699 24.7357 55.6405 24.3437C55.2205 23.9517 55.0105 23.4197 55.0105 22.7477C55.0105 22.0663 55.2579 21.5437 55.7525 21.1797C56.2565 20.8157 57.0359 20.6337 58.0905 20.6337H59.5185V19.9197C59.5185 19.4063 59.3785 19.0143 59.0985 18.7437C58.8185 18.473 58.3892 18.3377 57.8105 18.3377C57.3719 18.3377 57.0032 18.4357 56.7045 18.6317C56.4152 18.8277 56.1725 19.089 55.9765 19.4157L55.3045 18.7857C55.5005 18.3937 55.8132 18.0623 56.2425 17.7917C56.6719 17.5117 57.2132 17.3717 57.8665 17.3717C58.7439 17.3717 59.4252 17.5863 59.9105 18.0157C60.3959 18.445 60.6385 19.0423 60.6385 19.8077V23.7837H61.4645V24.7637H60.8345ZM57.6145 23.9797C57.8945 23.9797 58.1512 23.947 58.3845 23.8817C58.6179 23.8163 58.8185 23.723 58.9865 23.6017C59.1545 23.4803 59.2852 23.3403 59.3785 23.1817C59.4719 23.023 59.5185 22.8503 59.5185 22.6637V21.4737H58.0345C57.3905 21.4737 56.9192 21.567 56.6205 21.7537C56.3312 21.9403 56.1865 22.211 56.1865 22.5657V22.8597C56.1865 23.2143 56.3125 23.4897 56.5645 23.6857C56.8259 23.8817 57.1759 23.9797 57.6145 23.9797ZM66.4836 14.9917H69.7596C70.3663 14.9917 70.917 15.0943 71.4116 15.2997C71.9063 15.505 72.3263 15.813 72.6716 16.2237C73.0263 16.625 73.297 17.1337 73.4836 17.7497C73.6703 18.3563 73.7636 19.0657 73.7636 19.8777C73.7636 20.6897 73.6703 21.4037 73.4836 22.0197C73.297 22.6263 73.0263 23.135 72.6716 23.5457C72.3263 23.947 71.9063 24.2503 71.4116 24.4557C70.917 24.661 70.3663 24.7637 69.7596 24.7637H66.4836V14.9917ZM69.7596 23.7277C70.161 23.7277 70.5296 23.6623 70.8656 23.5317C71.2016 23.3917 71.491 23.191 71.7336 22.9297C71.9763 22.6683 72.163 22.351 72.2936 21.9777C72.4336 21.595 72.5036 21.161 72.5036 20.6757V19.0797C72.5036 18.5943 72.4336 18.165 72.2936 17.7917C72.163 17.409 71.9763 17.087 71.7336 16.8257C71.491 16.5643 71.2016 16.3683 70.8656 16.2377C70.5296 16.0977 70.161 16.0277 69.7596 16.0277H67.6596V23.7277H69.7596ZM78.4802 24.9317C77.9856 24.9317 77.5376 24.843 77.1362 24.6657C76.7442 24.4883 76.4036 24.2363 76.1142 23.9097C75.8342 23.5737 75.6149 23.177 75.4562 22.7197C75.3069 22.253 75.2322 21.7303 75.2322 21.1517C75.2322 20.5823 75.3069 20.0643 75.4562 19.5977C75.6149 19.131 75.8342 18.7343 76.1142 18.4077C76.4036 18.0717 76.7442 17.815 77.1362 17.6377C77.5376 17.4603 77.9856 17.3717 78.4802 17.3717C78.9656 17.3717 79.3996 17.4603 79.7822 17.6377C80.1649 17.815 80.4916 18.0623 80.7622 18.3797C81.0329 18.6877 81.2382 19.0563 81.3782 19.4857C81.5276 19.915 81.6022 20.3863 81.6022 20.8997V21.4317H76.4082V21.7677C76.4082 22.0757 76.4549 22.365 76.5482 22.6357C76.6509 22.897 76.7909 23.1257 76.9682 23.3217C77.1549 23.5177 77.3789 23.6717 77.6402 23.7837C77.9109 23.8957 78.2142 23.9517 78.5502 23.9517C79.0076 23.9517 79.4042 23.8443 79.7402 23.6297C80.0856 23.415 80.3516 23.107 80.5382 22.7057L81.3362 23.2797C81.1029 23.7743 80.7389 24.1757 80.2442 24.4837C79.7496 24.7823 79.1616 24.9317 78.4802 24.9317ZM78.4802 18.3097C78.1722 18.3097 77.8922 18.3657 77.6402 18.4777C77.3882 18.5803 77.1689 18.7297 76.9822 18.9257C76.8049 19.1217 76.6649 19.355 76.5622 19.6257C76.4596 19.887 76.4082 20.1763 76.4082 20.4937V20.5917H80.3982V20.4377C80.3982 19.7937 80.2209 19.2803 79.8662 18.8977C79.5209 18.5057 79.0589 18.3097 78.4802 18.3097ZM85.6178 24.9317C84.9458 24.9317 84.3811 24.8057 83.9238 24.5537C83.4758 24.2923 83.0885 23.947 82.7618 23.5177L83.5598 22.8737C83.8398 23.2283 84.1525 23.5037 84.4978 23.6997C84.8431 23.8863 85.2445 23.9797 85.7018 23.9797C86.1778 23.9797 86.5465 23.877 86.8078 23.6717C87.0785 23.4663 87.2138 23.177 87.2138 22.8037C87.2138 22.5237 87.1205 22.2857 86.9338 22.0897C86.7565 21.8843 86.4298 21.7443 85.9538 21.6697L85.3798 21.5857C85.0438 21.539 84.7358 21.469 84.4558 21.3757C84.1758 21.273 83.9285 21.1423 83.7138 20.9837C83.5085 20.8157 83.3451 20.6103 83.2238 20.3677C83.1118 20.125 83.0558 19.8357 83.0558 19.4997C83.0558 19.145 83.1211 18.837 83.2518 18.5757C83.3825 18.305 83.5598 18.081 83.7838 17.9037C84.0171 17.7263 84.2925 17.5957 84.6098 17.5117C84.9271 17.4183 85.2678 17.3717 85.6318 17.3717C86.2198 17.3717 86.7098 17.4743 87.1018 17.6797C87.5031 17.885 87.8531 18.1697 88.1518 18.5337L87.4098 19.2057C87.2511 18.9817 87.0178 18.781 86.7098 18.6037C86.4018 18.417 86.0145 18.3237 85.5478 18.3237C85.0811 18.3237 84.7265 18.4263 84.4838 18.6317C84.2505 18.8277 84.1338 19.0983 84.1338 19.4437C84.1338 19.7983 84.2505 20.055 84.4838 20.2137C84.7265 20.3723 85.0718 20.489 85.5198 20.5637L86.0798 20.6477C86.8825 20.769 87.4518 21.0023 87.7878 21.3477C88.1238 21.6837 88.2918 22.127 88.2918 22.6777C88.2918 23.3777 88.0538 23.9283 87.5778 24.3297C87.1018 24.731 86.4485 24.9317 85.6178 24.9317ZM92.9861 24.9317C92.4914 24.9317 92.0434 24.843 91.6421 24.6657C91.2501 24.4883 90.9094 24.2363 90.6201 23.9097C90.3401 23.5737 90.1207 23.177 89.9621 22.7197C89.8127 22.253 89.7381 21.7303 89.7381 21.1517C89.7381 20.5823 89.8127 20.0643 89.9621 19.5977C90.1207 19.131 90.3401 18.7343 90.6201 18.4077C90.9094 18.0717 91.2501 17.815 91.6421 17.6377C92.0434 17.4603 92.4914 17.3717 92.9861 17.3717C93.4714 17.3717 93.9054 17.4603 94.2881 17.6377C94.6707 17.815 94.9974 18.0623 95.2681 18.3797C95.5387 18.6877 95.7441 19.0563 95.8841 19.4857C96.0334 19.915 96.1081 20.3863 96.1081 20.8997V21.4317H90.9141V21.7677C90.9141 22.0757 90.9607 22.365 91.0541 22.6357C91.1567 22.897 91.2967 23.1257 91.4741 23.3217C91.6607 23.5177 91.8847 23.6717 92.1461 23.7837C92.4167 23.8957 92.7201 23.9517 93.0561 23.9517C93.5134 23.9517 93.9101 23.8443 94.2461 23.6297C94.5914 23.415 94.8574 23.107 95.0441 22.7057L95.8421 23.2797C95.6087 23.7743 95.2447 24.1757 94.7501 24.4837C94.2554 24.7823 93.6674 24.9317 92.9861 24.9317ZM92.9861 18.3097C92.6781 18.3097 92.3981 18.3657 92.1461 18.4777C91.8941 18.5803 91.6747 18.7297 91.4881 18.9257C91.3107 19.1217 91.1707 19.355 91.0681 19.6257C90.9654 19.887 90.9141 20.1763 90.9141 20.4937V20.5917H94.9041V20.4377C94.9041 19.7937 94.7267 19.2803 94.3721 18.8977C94.0267 18.5057 93.5647 18.3097 92.9861 18.3097ZM97.9537 24.7637V17.5397H99.0737V18.7157H99.1297C99.307 18.305 99.5543 17.9783 99.8717 17.7357C100.198 17.493 100.632 17.3717 101.174 17.3717C101.92 17.3717 102.508 17.6143 102.938 18.0997C103.376 18.5757 103.596 19.2523 103.596 20.1297V24.7637H102.476V20.3257C102.476 19.0283 101.93 18.3797 100.838 18.3797C100.614 18.3797 100.394 18.4077 100.18 18.4637C99.9743 18.5197 99.7877 18.6037 99.6197 18.7157C99.4517 18.8277 99.3163 18.9723 99.2137 19.1497C99.1203 19.3177 99.0737 19.5183 99.0737 19.7517V24.7637H97.9537ZM107.397 24.7637L104.863 17.5397H105.983L107.243 21.1237L108.027 23.5877H108.097L108.881 21.1237L110.169 17.5397H111.247L108.699 24.7637H107.397ZM115.313 24.9317C114.827 24.9317 114.384 24.843 113.983 24.6657C113.581 24.4883 113.236 24.2363 112.947 23.9097C112.667 23.5737 112.447 23.177 112.289 22.7197C112.13 22.253 112.051 21.7303 112.051 21.1517C112.051 20.5823 112.13 20.0643 112.289 19.5977C112.447 19.131 112.667 18.7343 112.947 18.4077C113.236 18.0717 113.581 17.815 113.983 17.6377C114.384 17.4603 114.827 17.3717 115.313 17.3717C115.798 17.3717 116.237 17.4603 116.629 17.6377C117.03 17.815 117.375 18.0717 117.665 18.4077C117.954 18.7343 118.178 19.131 118.337 19.5977C118.495 20.0643 118.575 20.5823 118.575 21.1517C118.575 21.7303 118.495 22.253 118.337 22.7197C118.178 23.177 117.954 23.5737 117.665 23.9097C117.375 24.2363 117.03 24.4883 116.629 24.6657C116.237 24.843 115.798 24.9317 115.313 24.9317ZM115.313 23.9377C115.919 23.9377 116.414 23.751 116.797 23.3777C117.179 23.0043 117.371 22.435 117.371 21.6697V20.6337C117.371 19.8683 117.179 19.299 116.797 18.9257C116.414 18.5523 115.919 18.3657 115.313 18.3657C114.706 18.3657 114.211 18.5523 113.829 18.9257C113.446 19.299 113.255 19.8683 113.255 20.6337V21.6697C113.255 22.435 113.446 23.0043 113.829 23.3777C114.211 23.751 114.706 23.9377 115.313 23.9377ZM121.607 24.7637C121.215 24.7637 120.916 24.6563 120.711 24.4417C120.515 24.2177 120.417 23.9377 120.417 23.6017V14.4037H121.537V23.7837H122.601V24.7637H121.607ZM125.69 24.7637L123.156 17.5397H124.276L125.536 21.1237L126.32 23.5877H126.39L127.174 21.1237L128.462 17.5397H129.54L126.992 24.7637H125.69ZM133.592 24.9317C133.097 24.9317 132.649 24.843 132.248 24.6657C131.856 24.4883 131.515 24.2363 131.226 23.9097C130.946 23.5737 130.726 23.177 130.568 22.7197C130.418 22.253 130.344 21.7303 130.344 21.1517C130.344 20.5823 130.418 20.0643 130.568 19.5977C130.726 19.131 130.946 18.7343 131.226 18.4077C131.515 18.0717 131.856 17.815 132.248 17.6377C132.649 17.4603 133.097 17.3717 133.592 17.3717C134.077 17.3717 134.511 17.4603 134.894 17.6377C135.276 17.815 135.603 18.0623 135.874 18.3797C136.144 18.6877 136.35 19.0563 136.49 19.4857C136.639 19.915 136.714 20.3863 136.714 20.8997V21.4317H131.52V21.7677C131.52 22.0757 131.566 22.365 131.66 22.6357C131.762 22.897 131.902 23.1257 132.08 23.3217C132.266 23.5177 132.49 23.6717 132.752 23.7837C133.022 23.8957 133.326 23.9517 133.662 23.9517C134.119 23.9517 134.516 23.8443 134.852 23.6297C135.197 23.415 135.463 23.107 135.65 22.7057L136.448 23.2797C136.214 23.7743 135.85 24.1757 135.356 24.4837C134.861 24.7823 134.273 24.9317 133.592 24.9317ZM133.592 18.3097C133.284 18.3097 133.004 18.3657 132.752 18.4777C132.5 18.5803 132.28 18.7297 132.094 18.9257C131.916 19.1217 131.776 19.355 131.674 19.6257C131.571 19.887 131.52 20.1763 131.52 20.4937V20.5917H135.51V20.4377C135.51 19.7937 135.332 19.2803 134.978 18.8977C134.632 18.5057 134.17 18.3097 133.592 18.3097Z" fill="black"/>
<path d="M3.42917 51.2363H2.25317V41.4643H6.14517C7.00384 41.4643 7.67117 41.7023 8.14717 42.1783C8.63251 42.6543 8.87517 43.3403 8.87517 44.2363C8.87517 44.955 8.70717 45.5477 8.37117 46.0143C8.04451 46.4717 7.55917 46.775 6.91517 46.9243L9.15517 51.2363H7.82517L5.71117 47.0363H3.42917V51.2363ZM6.14517 46.0283C6.61184 46.0283 6.97117 45.907 7.22317 45.6643C7.48451 45.4217 7.61517 45.0763 7.61517 44.6283V43.9003C7.61517 43.4523 7.48451 43.107 7.22317 42.8643C6.97117 42.6217 6.61184 42.5003 6.14517 42.5003H3.42917V46.0283H6.14517ZM13.6072 51.4043C13.1125 51.4043 12.6645 51.3157 12.2632 51.1383C11.8712 50.961 11.5305 50.709 11.2412 50.3823C10.9612 50.0463 10.7418 49.6497 10.5832 49.1923C10.4338 48.7257 10.3592 48.203 10.3592 47.6243C10.3592 47.055 10.4338 46.537 10.5832 46.0703C10.7418 45.6037 10.9612 45.207 11.2412 44.8803C11.5305 44.5443 11.8712 44.2877 12.2632 44.1103C12.6645 43.933 13.1125 43.8443 13.6072 43.8443C14.0925 43.8443 14.5265 43.933 14.9092 44.1103C15.2918 44.2877 15.6185 44.535 15.8892 44.8523C16.1598 45.1603 16.3652 45.529 16.5052 45.9583C16.6545 46.3877 16.7292 46.859 16.7292 47.3723V47.9043H11.5352V48.2403C11.5352 48.5483 11.5818 48.8377 11.6752 49.1083C11.7778 49.3697 11.9178 49.5983 12.0952 49.7943C12.2818 49.9903 12.5058 50.1443 12.7672 50.2563C13.0378 50.3683 13.3412 50.4243 13.6772 50.4243C14.1345 50.4243 14.5312 50.317 14.8672 50.1023C15.2125 49.8877 15.4785 49.5797 15.6652 49.1783L16.4632 49.7523C16.2298 50.247 15.8658 50.6483 15.3712 50.9563C14.8765 51.255 14.2885 51.4043 13.6072 51.4043ZM13.6072 44.7823C13.2992 44.7823 13.0192 44.8383 12.7672 44.9503C12.5152 45.053 12.2958 45.2023 12.1092 45.3983C11.9318 45.5943 11.7918 45.8277 11.6892 46.0983C11.5865 46.3597 11.5352 46.649 11.5352 46.9663V47.0643H15.5252V46.9103C15.5252 46.2663 15.3478 45.753 14.9932 45.3703C14.6478 44.9783 14.1858 44.7823 13.6072 44.7823ZM24.6648 52.0343C24.6648 52.781 24.3708 53.327 23.7828 53.6723C23.2041 54.027 22.3314 54.2043 21.1648 54.2043C20.0354 54.2043 19.2234 54.0503 18.7288 53.7423C18.2341 53.4343 17.9868 52.9957 17.9868 52.4263C17.9868 52.0343 18.0894 51.7263 18.2948 51.5023C18.5001 51.2877 18.7801 51.129 19.1348 51.0263V50.8723C18.7054 50.667 18.4908 50.331 18.4908 49.8643C18.4908 49.5003 18.6074 49.225 18.8408 49.0383C19.0741 48.8423 19.3728 48.6977 19.7368 48.6043V48.5483C19.3074 48.343 18.9714 48.049 18.7288 47.6663C18.4954 47.2837 18.3788 46.8403 18.3788 46.3363C18.3788 45.9723 18.4441 45.6363 18.5748 45.3283C18.7054 45.0203 18.8874 44.759 19.1208 44.5443C19.3634 44.3203 19.6481 44.1477 19.9748 44.0263C20.3108 43.905 20.6841 43.8443 21.0948 43.8443C21.6081 43.8443 22.0654 43.9377 22.4668 44.1243V43.9983C22.4668 43.7183 22.5321 43.4897 22.6628 43.3123C22.7934 43.1257 23.0081 43.0323 23.3068 43.0323H24.3848V44.0123H23.0128V44.4743C23.2741 44.6983 23.4748 44.969 23.6148 45.2863C23.7641 45.5943 23.8388 45.9443 23.8388 46.3363C23.8388 46.7003 23.7734 47.0363 23.6428 47.3443C23.5121 47.6523 23.3254 47.9183 23.0828 48.1423C22.8494 48.357 22.5648 48.525 22.2288 48.6463C21.8928 48.7677 21.5194 48.8283 21.1088 48.8283C20.8754 48.8283 20.6421 48.805 20.4088 48.7583C20.1661 48.8237 19.9468 48.9217 19.7508 49.0523C19.5548 49.1737 19.4568 49.3463 19.4568 49.5703C19.4568 49.785 19.5594 49.9297 19.7648 50.0043C19.9701 50.079 20.2361 50.1163 20.5628 50.1163H22.1028C22.9988 50.1163 23.6474 50.289 24.0488 50.6343C24.4594 50.9703 24.6648 51.437 24.6648 52.0343ZM23.6148 52.1183C23.6148 51.829 23.5028 51.5957 23.2788 51.4183C23.0641 51.2503 22.6768 51.1663 22.1168 51.1663H19.7088C19.2608 51.3717 19.0368 51.6983 19.0368 52.1463C19.0368 52.4637 19.1534 52.7343 19.3868 52.9583C19.6294 53.1823 20.0354 53.2943 20.6048 53.2943H21.6408C22.2661 53.2943 22.7514 53.1963 23.0968 53.0003C23.4421 52.8043 23.6148 52.5103 23.6148 52.1183ZM21.1088 47.9323C21.5848 47.9323 21.9628 47.8203 22.2428 47.5963C22.5228 47.363 22.6628 47.0083 22.6628 46.5323V46.1403C22.6628 45.6643 22.5228 45.3143 22.2428 45.0903C21.9628 44.857 21.5848 44.7403 21.1088 44.7403C20.6328 44.7403 20.2548 44.857 19.9748 45.0903C19.6948 45.3143 19.5548 45.6643 19.5548 46.1403V46.5323C19.5548 47.0083 19.6948 47.363 19.9748 47.5963C20.2548 47.8203 20.6328 47.9323 21.1088 47.9323ZM30.3686 50.0603H30.3126C30.2379 50.2283 30.1446 50.3963 30.0326 50.5643C29.9299 50.723 29.7992 50.8677 29.6406 50.9983C29.4819 51.1197 29.2906 51.2177 29.0666 51.2923C28.8426 51.367 28.5812 51.4043 28.2826 51.4043C27.5359 51.4043 26.9432 51.1663 26.5046 50.6903C26.0659 50.205 25.8466 49.5237 25.8466 48.6463V44.0123H26.9666V48.4503C26.9666 49.7477 27.5172 50.3963 28.6186 50.3963C28.8426 50.3963 29.0572 50.3683 29.2626 50.3123C29.4772 50.2563 29.6639 50.1723 29.8226 50.0603C29.9906 49.9483 30.1212 49.8083 30.2146 49.6403C30.3172 49.463 30.3686 49.253 30.3686 49.0103V44.0123H31.4886V51.2363H30.3686V50.0603ZM35.0636 51.2363C34.6716 51.2363 34.3729 51.129 34.1676 50.9143C33.9716 50.6903 33.8736 50.4103 33.8736 50.0743V40.8763H34.9936V50.2563H36.0576V51.2363H35.0636ZM42.938 51.2363C42.518 51.2363 42.2147 51.1243 42.028 50.9003C41.8507 50.6763 41.7387 50.3963 41.692 50.0603H41.622C41.4634 50.5083 41.202 50.8443 40.838 51.0683C40.474 51.2923 40.04 51.4043 39.536 51.4043C38.7707 51.4043 38.1734 51.2083 37.744 50.8163C37.324 50.4243 37.114 49.8923 37.114 49.2203C37.114 48.539 37.3614 48.0163 37.856 47.6523C38.36 47.2883 39.1394 47.1063 40.194 47.1063H41.622V46.3923C41.622 45.879 41.482 45.487 41.202 45.2163C40.922 44.9457 40.4927 44.8103 39.914 44.8103C39.4754 44.8103 39.1067 44.9083 38.808 45.1043C38.5187 45.3003 38.276 45.5617 38.08 45.8883L37.408 45.2583C37.604 44.8663 37.9167 44.535 38.346 44.2643C38.7754 43.9843 39.3167 43.8443 39.97 43.8443C40.8474 43.8443 41.5287 44.059 42.014 44.4883C42.4994 44.9177 42.742 45.515 42.742 46.2803V50.2563H43.568V51.2363H42.938ZM39.718 50.4523C39.998 50.4523 40.2547 50.4197 40.488 50.3543C40.7214 50.289 40.922 50.1957 41.09 50.0743C41.258 49.953 41.3887 49.813 41.482 49.6543C41.5754 49.4957 41.622 49.323 41.622 49.1363V47.9463H40.138C39.494 47.9463 39.0227 48.0397 38.724 48.2263C38.4347 48.413 38.29 48.6837 38.29 49.0383V49.3323C38.29 49.687 38.416 49.9623 38.668 50.1583C38.9294 50.3543 39.2794 50.4523 39.718 50.4523ZM45.1666 51.2363V44.0123H46.2866V45.1883H46.3426C46.4266 45.0017 46.5199 44.829 46.6226 44.6703C46.7346 44.5023 46.8652 44.3577 47.0146 44.2363C47.1732 44.115 47.3552 44.0217 47.5606 43.9563C47.7659 43.8817 48.0086 43.8443 48.2886 43.8443C48.7646 43.8443 49.2032 43.961 49.6046 44.1943C50.0059 44.4183 50.3046 44.7917 50.5006 45.3143H50.5286C50.6592 44.9223 50.9019 44.5817 51.2566 44.2923C51.6206 43.9937 52.1106 43.8443 52.7266 43.8443C53.4639 43.8443 54.0379 44.087 54.4486 44.5723C54.8686 45.0483 55.0786 45.725 55.0786 46.6023V51.2363H53.9586V46.7983C53.9586 46.1543 53.8326 45.669 53.5806 45.3423C53.3286 45.0157 52.9272 44.8523 52.3766 44.8523C52.1526 44.8523 51.9379 44.8803 51.7326 44.9363C51.5366 44.9923 51.3592 45.0763 51.2006 45.1883C51.0419 45.3003 50.9159 45.445 50.8226 45.6223C50.7292 45.7903 50.6826 45.991 50.6826 46.2243V51.2363H49.5626V46.7983C49.5626 46.1543 49.4366 45.669 49.1846 45.3423C48.9326 45.0157 48.5406 44.8523 48.0086 44.8523C47.7846 44.8523 47.5699 44.8803 47.3646 44.9363C47.1592 44.9923 46.9772 45.0763 46.8186 45.1883C46.6599 45.3003 46.5292 45.445 46.4266 45.6223C46.3332 45.7903 46.2866 45.991 46.2866 46.2243V51.2363H45.1666ZM60.1052 51.4043C59.6106 51.4043 59.1626 51.3157 58.7612 51.1383C58.3692 50.961 58.0286 50.709 57.7392 50.3823C57.4592 50.0463 57.2399 49.6497 57.0812 49.1923C56.9319 48.7257 56.8572 48.203 56.8572 47.6243C56.8572 47.055 56.9319 46.537 57.0812 46.0703C57.2399 45.6037 57.4592 45.207 57.7392 44.8803C58.0286 44.5443 58.3692 44.2877 58.7612 44.1103C59.1626 43.933 59.6106 43.8443 60.1052 43.8443C60.5906 43.8443 61.0246 43.933 61.4072 44.1103C61.7899 44.2877 62.1166 44.535 62.3872 44.8523C62.6579 45.1603 62.8632 45.529 63.0032 45.9583C63.1526 46.3877 63.2272 46.859 63.2272 47.3723V47.9043H58.0332V48.2403C58.0332 48.5483 58.0799 48.8377 58.1732 49.1083C58.2759 49.3697 58.4159 49.5983 58.5932 49.7943C58.7799 49.9903 59.0039 50.1443 59.2652 50.2563C59.5359 50.3683 59.8392 50.4243 60.1752 50.4243C60.6326 50.4243 61.0292 50.317 61.3652 50.1023C61.7106 49.8877 61.9766 49.5797 62.1632 49.1783L62.9612 49.7523C62.7279 50.247 62.3639 50.6483 61.8692 50.9563C61.3746 51.255 60.7866 51.4043 60.1052 51.4043ZM60.1052 44.7823C59.7972 44.7823 59.5172 44.8383 59.2652 44.9503C59.0132 45.053 58.7939 45.2023 58.6072 45.3983C58.4299 45.5943 58.2899 45.8277 58.1872 46.0983C58.0846 46.3597 58.0332 46.649 58.0332 46.9663V47.0643H62.0232V46.9103C62.0232 46.2663 61.8459 45.753 61.4912 45.3703C61.1459 44.9783 60.6839 44.7823 60.1052 44.7823ZM65.0728 51.2363V44.0123H66.1928V45.1883H66.2488C66.4261 44.7777 66.6735 44.451 66.9908 44.2083C67.3175 43.9657 67.7515 43.8443 68.2928 43.8443C69.0395 43.8443 69.6275 44.087 70.0568 44.5723C70.4955 45.0483 70.7148 45.725 70.7148 46.6023V51.2363H69.5948V46.7983C69.5948 45.501 69.0488 44.8523 67.9568 44.8523C67.7328 44.8523 67.5135 44.8803 67.2988 44.9363C67.0935 44.9923 66.9068 45.0763 66.7388 45.1883C66.5708 45.3003 66.4355 45.445 66.3328 45.6223C66.2395 45.7903 66.1928 45.991 66.1928 46.2243V51.2363H65.0728ZM74.6258 51.2363C74.2338 51.2363 73.9352 51.129 73.7298 50.9143C73.5338 50.6903 73.4358 50.401 73.4358 50.0463V44.9923H72.2458V44.0123H72.9178C73.1605 44.0123 73.3238 43.9657 73.4078 43.8723C73.5012 43.7697 73.5478 43.597 73.5478 43.3543V42.0103H74.5558V44.0123H76.1378V44.9923H74.5558V50.2563H76.0258V51.2363H74.6258ZM80.6134 51.4043C80.128 51.4043 79.6847 51.3157 79.2834 51.1383C78.882 50.961 78.5367 50.709 78.2474 50.3823C77.9674 50.0463 77.748 49.6497 77.5894 49.1923C77.4307 48.7257 77.3514 48.203 77.3514 47.6243C77.3514 47.055 77.4307 46.537 77.5894 46.0703C77.748 45.6037 77.9674 45.207 78.2474 44.8803C78.5367 44.5443 78.882 44.2877 79.2834 44.1103C79.6847 43.933 80.128 43.8443 80.6134 43.8443C81.0987 43.8443 81.5374 43.933 81.9294 44.1103C82.3307 44.2877 82.676 44.5443 82.9654 44.8803C83.2547 45.207 83.4787 45.6037 83.6374 46.0703C83.796 46.537 83.8754 47.055 83.8754 47.6243C83.8754 48.203 83.796 48.7257 83.6374 49.1923C83.4787 49.6497 83.2547 50.0463 82.9654 50.3823C82.676 50.709 82.3307 50.961 81.9294 51.1383C81.5374 51.3157 81.0987 51.4043 80.6134 51.4043ZM80.6134 50.4103C81.22 50.4103 81.7147 50.2237 82.0974 49.8503C82.48 49.477 82.6714 48.9077 82.6714 48.1423V47.1063C82.6714 46.341 82.48 45.7717 82.0974 45.3983C81.7147 45.025 81.22 44.8383 80.6134 44.8383C80.0067 44.8383 79.512 45.025 79.1294 45.3983C78.7467 45.7717 78.5554 46.341 78.5554 47.1063V48.1423C78.5554 48.9077 78.7467 49.477 79.1294 49.8503C79.512 50.2237 80.0067 50.4103 80.6134 50.4103Z" fill="black"/>
<defs>
<clipPath id="clip0_101_16331">
<rect width="32" height="32" fill="white" transform="translate(288 0.949219)"/>
</clipPath>
<clipPath id="clip1_101_16331">
<rect width="32" height="32" fill="white" transform="translate(240 0.949219)"/>
</clipPath>
<clipPath id="clip2_101_16331">
<rect width="32" height="32" fill="white" transform="translate(192 0.949219)"/>
</clipPath>
</defs>
</svg>
